HIERARCHY
ROOT Hips
{
	OFFSET 0.00 0.00 0.00
	CHANNELS 6 Xposition Yposition Zposition Zrotation Yrotation Xrotation
	JOINT Spine
	{
		OFFSET 0.00000 0.00000 4.45283
		CHANNELS 3 Zrotation Yrotation Xrotation
		JOINT Spine1
		{
			OFFSET 0.00000 -0.77323 4.38518
			CHANNELS 3 Zrotation Yrotation Xrotation
			JOINT Spine2
			{
				OFFSET 0.00000 -0.38809 4.43588
				CHANNELS 3 Zrotation Yrotation Xrotation
				JOINT Spine3
				{
					OFFSET 0.00000 0.00000 4.45283
					CHANNELS 3 Zrotation Yrotation Xrotation
					JOINT Neck
					{
						OFFSET 0.00000 0.57251 5.72507
						CHANNELS 3 Zrotation Yrotation Xrotation
						JOINT Neck1
						{
							OFFSET 0.00000 0.14369 1.64240
							CHANNELS 3 Zrotation Yrotation Xrotation
							JOINT Head
							{
								OFFSET 0.00000 0.28629 1.62363
								CHANNELS 3 Zrotation Yrotation Xrotation
								End Site
								{
									OFFSET 0.00000 0.00000 3.54915
								}
							}
						}
					}
					JOINT RightShoulder
					{
						OFFSET 0.00000 0.00000 4.00754
						CHANNELS 3 Zrotation Yrotation Xrotation
						JOINT RightArm
						{
							OFFSET 7.25811 0.00000 0.00000
							CHANNELS 3 Zrotation Yrotation Xrotation
							JOINT RightForeArm
							{
								OFFSET 11.28124 0.00000 0.00000
								CHANNELS 3 Zrotation Yrotation Xrotation
								JOINT RightHand
								{
									OFFSET 8.65626 0.00000 0.00000
									CHANNELS 3 Zrotation Yrotation Xrotation
									End Site
									{
										OFFSET 4.37860 -0.04210 0.00000
									}
								}
							}
						}
					}
					JOINT LeftShoulder
					{
						OFFSET 0.00000 0.00000 4.00754
						CHANNELS 3 Zrotation Yrotation Xrotation
						JOINT LeftArm
						{
							OFFSET -7.25811 0.00000 0.00000
							CHANNELS 3 Zrotation Yrotation Xrotation
							JOINT LeftForeArm
							{
								OFFSET -11.28124 0.00000 0.00000
								CHANNELS 3 Zrotation Yrotation Xrotation
								JOINT LeftHand
								{
									OFFSET -8.65626 0.00000 0.00000
									CHANNELS 3 Zrotation Yrotation Xrotation
									End Site
									{
										OFFSET -4.37860 -0.04210 0.00000
									}
								}
							}
						}
					}
				}
			}
		}
	}
	JOINT RightUpLeg
	{
		OFFSET 3.94454 0.00000 0.00000
		CHANNELS 3 Zrotation Yrotation Xrotation
		JOINT RightLeg
		{
			OFFSET 0.00000 0.00000 -16.59787
			CHANNELS 3 Zrotation Yrotation Xrotation
			JOINT RightFoot
			{
				OFFSET 0.00000 0.00000 -15.90528
				CHANNELS 3 Zrotation Yrotation Xrotation
				JOINT RightToeBase
				{
					OFFSET 0.00000 4.84053 -1.23599
					CHANNELS 3 Zrotation Yrotation Xrotation
					End Site
					{
						OFFSET 0.00000 3.52639 0.00000
					}
				}
			}
		}
	}
	JOINT LeftUpLeg
	{
		OFFSET -3.94454 0.00000 0.00000
		CHANNELS 3 Zrotation Yrotation Xrotation
		JOINT LeftLeg
		{
			OFFSET 0.00000 0.00000 -16.59787
			CHANNELS 3 Zrotation Yrotation Xrotation
			JOINT LeftFoot
			{
				OFFSET 0.00000 0.00000 -15.90528
				CHANNELS 3 Zrotation Yrotation Xrotation
				JOINT LeftToeBase
				{
					OFFSET 0.00000 4.84053 -1.23599
					CHANNELS 3 Zrotation Yrotation Xrotation
					End Site
					{
						OFFSET 0.00000 3.43881 0.00000
					}
				}
			}
		}
	}
}
MOTION
Frames: 11
Frame Time: 0.033333
 8.2459 -0.6152 36.2039 88.7402 -1.1051 -0.1575 1.0946 -0.1263 1.1764 1.1015 -0.0304 1.1773 1.0980 0.3016 -0.4630 1.0980 0.3016 -0.4630 -3.9893 -2.2556 9.7497 -4.0508 0.0237 2.1581 -4.3235 4.3349 -8.3368 -4.0050 -2.7589 -0.0000 8.4867 21.1673 41.2551 36.0007 -0.0000 -17.8010 -16.0427 3.3569 -0.9646 -1.4999 -1.6084 0.0000 -11.6712 -16.0442 28.0467 -31.5111 0.0000 -18.9446 16.1599 -1.6340 -0.4734 -16.7758 0.1042 -4.2991 -0.0000 -0.0000 -6.1782 -12.1383 13.3848 1.2299 -0.0000 0.0000 -2.3940 13.6672 -1.2631 -4.6124 0.0000 0.0000 -5.0300 11.4685 -0.5446 5.4985 0.0000 -0.0000 -7.0792
 8.2369 -0.5931 36.2042 88.7880 -1.0899 -0.2177 1.0990 -0.1433 1.2154 1.1073 -0.0469 1.2163 1.1054 0.3050 -0.4572 1.1054 0.3050 -0.4572 -3.9790 -2.2831 9.7026 -4.0454 0.0473 2.1168 -4.3223 4.4264 -8.3707 -3.9779 -2.7572 0.0000 8.4565 21.1812 41.2979 36.0580 -0.0000 -17.7667 -16.0490 3.3368 -0.9593 -1.4835 -1.6037 0.0000 -11.6251 -15.9894 27.9996 -31.5221 -0.0000 -18.9343 16.1178 -1.5461 -0.4467 -16.8169 0.1368 -4.3189 0.0000 -0.0000 -6.0809 -12.1546 13.3538 1.2206 -0.0000 -0.0000 -2.4044 13.6311 -1.2501 -4.5775 0.0000 0.0000 -4.9940 11.4510 -0.5626 5.4798 -0.0000 -0.0000 -7.0939
 8.2335 -0.5734 36.2040 88.8328 -1.0655 -0.3025 1.1044 -0.1618 1.2655 1.1143 -0.0649 1.2664 1.1141 0.3048 -0.4489 1.1141 0.3048 -0.4489 -3.9893 -2.2518 9.6703 -4.0597 0.0674 2.0754 -4.3359 4.4347 -8.4252 -3.9485 -2.7574 -0.0000 8.4128 21.1836 41.2153 36.1359 0.0000 -17.7150 -16.0696 3.2821 -0.9448 -1.4573 -1.5962 -0.0000 -11.6141 -15.9529 27.9839 -31.5326 -0.0000 -18.9309 16.1280 -1.5381 -0.4447 -16.8642 0.1637 -4.2887 0.0000 0.0000 -6.0183 -12.1485 13.3508 1.2335 0.0000 0.0000 -2.4123 13.5651 -1.2630 -4.5095 0.0000 0.0000 -4.9648 11.4703 -0.5421 5.4758 -0.0000 -0.0000 -7.1156
 8.2333 -0.5543 36.2010 88.8843 -1.0348 -0.3496 1.1133 -0.1874 1.2763 1.1254 -0.0897 1.2772 1.1276 0.3134 -0.4291 1.1276 0.3134 -0.4291 -4.0199 -2.2118 9.6773 -4.0924 0.0781 2.0526 -4.3675 4.4142 -8.4894 -3.9673 -2.7597 0.0000 8.4467 21.1717 41.2893 36.1432 -0.0000 -17.7710 -16.0275 3.3033 -0.9483 -1.4417 -1.5715 -0.0000 -11.6206 -15.9875 28.0474 -31.5687 0.0000 -18.9422 16.1257 -1.5413 -0.4456 -16.9835 0.1620 -4.2699 0.0000 0.0000 -5.9966 -12.0428 13.4462 1.2726 -0.0000 -0.0000 -2.3609 13.4344 -1.2838 -4.4588 0.0000 0.0000 -4.9650 11.5485 -0.5983 5.4768 -0.0000 0.0000 -7.1041
 8.2333 -0.5368 36.1995 88.9299 -1.0067 -0.3485 1.1250 -0.2015 1.2631 1.1383 -0.1027 1.2641 1.1417 0.3124 -0.4302 1.1417 0.3124 -0.4302 -4.0609 -2.2074 9.7103 -4.1343 0.0848 2.0571 -4.4111 4.4360 -8.5252 -3.9585 -2.7609 0.0000 8.4213 21.1686 41.2399 36.1801 -0.0000 -17.7612 -16.0218 3.3023 -0.9477 -1.4418 -1.5760 -0.0000 -11.6189 -16.0074 28.0397 -31.5972 0.0000 -18.9109 16.1550 -1.5737 -0.4558 -17.0849 0.1512 -4.2961 -0.0000 0.0000 -5.9684 -11.9721 13.4434 1.3040 0.0000 0.0000 -2.3559 13.3741 -1.2851 -4.4668 0.0000 0.0000 -4.9435 11.5624 -0.5937 5.4644 0.0000 -0.0000 -7.0994
 8.2398 -0.5197 36.2017 88.9643 -0.9969 -0.3991 1.1383 -0.2027 1.2834 1.1516 -0.1027 1.2844 1.1550 0.3104 -0.4466 1.1550 0.3104 -0.4466 -4.1013 -2.1855 9.7497 -4.1749 0.0879 2.0729 -4.4508 4.4250 -8.5429 -3.9199 -2.7536 0.0000 8.3602 21.2140 41.1776 36.2536 0.0000 -17.7091 -16.0308 3.3770 -0.9696 -1.4538 -1.5903 0.0000 -11.5918 -16.0873 27.9702 -31.6370 -0.0000 -18.6686 16.1600 -1.4912 -0.4321 -17.1372 0.1841 -4.2587 0.0000 -0.0000 -5.9427 -11.9609 13.4237 1.2883 -0.0000 -0.0000 -2.3517 13.3313 -1.2809 -4.4060 -0.0000 0.0000 -4.9264 11.5683 -0.5987 5.4302 -0.0000 0.0000 -7.1126
 8.2475 -0.5058 36.2049 88.9996 -0.9936 -0.4269 1.1548 -0.1947 1.2871 1.1674 -0.0933 1.2881 1.1697 0.3001 -0.4601 1.1697 0.3001 -0.4601 -4.1484 -2.1547 9.7688 -4.2249 0.1059 2.0875 -4.4984 4.4397 -8.5354 -3.8852 -2.7631 0.0000 8.3021 21.3361 41.0754 36.2241 0.0000 -17.7617 -15.9801 3.3937 -0.9712 -1.4738 -1.5503 -0.0000 -11.5855 -16.3462 27.9727 -31.6647 -0.0000 -18.4554 16.0076 -1.4060 -0.4033 -17.1924 0.2096 -4.2336 0.0000 0.0000 -5.9347 -11.9516 13.4239 1.2564 -0.0000 -0.0000 -2.3515 13.2958 -1.2704 -4.3723 -0.0000 0.0000 -4.8944 11.5632 -0.6265 5.3696 0.0000 0.0000 -7.0808
 8.2545 -0.4960 36.2069 89.0229 -0.9796 -0.4049 1.1709 -0.1855 1.2510 1.1826 -0.0827 1.2520 1.1839 0.2818 -0.4579 1.1839 0.2818 -0.4579 -4.2032 -2.1036 9.7839 -4.2851 0.1380 2.1090 -4.5537 4.4627 -8.5066 -3.8513 -2.7713 0.0000 8.2808 21.4877 40.9699 36.0498 -0.0000 -17.6298 -15.8588 3.2322 -0.9176 -1.4688 -1.5128 0.0000 -11.6184 -16.6427 28.0779 -31.6462 0.0000 -18.7249 15.9988 -1.4756 -0.4230 -17.2544 0.2013 -4.2455 0.0000 0.0000 -5.9359 -11.9089 13.4265 1.2393 0.0000 0.0000 -2.3256 13.2557 -1.2675 -4.4130 0.0000 0.0000 -4.8217 11.5848 -0.6122 5.3128 0.0000 0.0000 -7.0987
 8.2628 -0.4890 36.2067 89.0802 -0.9525 -0.3603 1.1730 -0.1814 1.1938 1.1843 -0.0785 1.1949 1.1853 0.2687 -0.4518 1.1853 0.2687 -0.4518 -4.2460 -2.0986 9.8370 -4.3309 0.1620 2.1493 -4.5995 4.5257 -8.4852 -3.8251 -2.7654 0.0000 8.2991 21.5858 40.9549 35.8983 -0.0000 -17.5765 -15.8800 3.3346 -0.9480 -1.5042 -1.4847 -0.0000 -11.5635 -16.9171 27.9751 -31.5073 0.0000 -18.6859 15.8405 -1.3532 -0.3839 -17.3068 0.1746 -4.2856 -0.0000 -0.0000 -5.9222 -11.9196 13.4513 1.2631 0.0000 0.0000 -2.3502 13.2075 -1.2742 -4.4600 -0.0000 0.0000 -4.7834 11.5796 -0.6307 5.2814 -0.0000 0.0000 -7.1114
 8.2789 -0.4808 36.2060 89.1785 -0.9250 -0.3765 1.1600 -0.1812 1.1716 1.1714 -0.0795 1.1727 1.1726 0.2588 -0.4615 1.1726 0.2588 -0.4615 -4.2846 -2.0955 9.8933 -4.3724 0.1864 2.2149 -4.6390 4.5914 -8.4080 -3.7911 -2.7762 -0.0000 8.2955 21.6608 40.8239 35.7869 -0.0000 -17.4717 -15.8948 3.3303 -0.9477 -1.5665 -1.4685 -0.0000 -11.4387 -17.1535 27.9409 -31.3975 -0.0000 -18.6312 15.6586 -1.2176 -0.3413 -17.3395 0.1807 -4.2626 -0.0000 -0.0000 -5.9156 -11.9786 13.4466 1.3080 0.0000 0.0000 -2.3673 13.1807 -1.2907 -4.4050 0.0000 0.0000 -4.7980 11.5093 -0.6109 5.2644 -0.0000 -0.0000 -7.0927
 8.2974 -0.4752 36.2065 89.2428 -0.8929 -0.3643 1.1537 -0.1800 1.1136 1.1650 -0.0788 1.1146 1.1662 0.2471 -0.4462 1.1662 0.2471 -0.4462 -4.3138 -2.0738 9.9797 -4.4037 0.2114 2.2972 -4.6665 4.6298 -8.3319 -3.7529 -2.8033 -0.0000 8.2446 21.7311 40.6868 35.7517 0.0000 -17.4569 -15.8054 3.2706 -0.9252 -1.6457 -1.4633 0.0000 -11.2406 -17.3454 27.8856 -31.3689 0.0000 -18.6152 15.4592 -1.0610 -0.2934 -17.3408 0.1730 -4.2463 -0.0000 -0.0000 -5.9176 -12.0426 13.4141 1.3277 -0.0000 -0.0000 -2.3767 13.1571 -1.3120 -4.3878 -0.0000 -0.0000 -4.7920 11.4673 -0.6183 5.2254 0.0000 0.0000 -7.0887
